<?xml version="1.0" standalone="no"?>
<!DOCTYPE svg PUBLIC "-//W3C//DTD SVG 20010904//EN"
 "http://www.w3.org/TR/2001/REC-SVG-20010904/DTD/svg10.dtd">
<svg version="1.0" xmlns="http://www.w3.org/2000/svg"
 width="768.000000pt" height="768.000000pt" viewBox="0 0 768.000000 768.000000"
 preserveAspectRatio="xMidYMid meet">

<g transform="translate(0.000000,768.000000) scale(0.100000,-0.100000)"
fill="#780206" stroke="none">
<path d="M6525 6019 c-347 -236 -737 -618 -1023 -998 -48 -64 -94 -128 -103
-141 l-16 -24 -54 17 c-185 56 -384 45 -533 -30 -62 -31 -142 -111 -166 -166
-25 -57 -34 -132 -21 -187 5 -24 9 -46 7 -47 -1 -1 -32 13 -68 32 -97 52 -218
78 -366 78 l-122 1 -51 155 c-64 200 -97 288 -116 306 -8 8 -29 15 -48 15 -27
0 -41 -9 -75 -47 -78 -88 -128 -239 -165 -488 -8 -60 -19 -112 -23 -115 -4 -4
-34 -32 -68 -63 l-61 -57 -206 239 c-134 155 -218 244 -241 255 -54 25 -103
21 -134 -12 -15 -16 -112 -182 -217 -370 -104 -188 -195 -340 -200 -338 -6 2
-53 33 -104 70 -115 81 -193 120 -224 112 -65 -16 -518 -539 -1149 -1327 -230
-287 -283 -334 -444 -395 -101 -38 -200 -54 -334 -54 -94 0 -122 -3 -134 -16
-20 -19 -20 -44 -2 -70 12 -16 29 -19 129 -22 137 -4 266 16 375 58 185 71
272 148 507 445 304 383 864 1053 1018 1218 25 26 51 47 58 47 21 -1 248 -159
249 -173 0 -4 -21 -45 -47 -90 -32 -57 -80 -117 -158 -197 -216 -225 -363
-491 -395 -720 -18 -125 -97 -241 -185 -270 -46 -15 -130 -18 -212 -7 -59 8
-62 8 -78 -17 -19 -29 -13 -61 16 -77 31 -16 158 -27 225 -19 83 10 164 49
218 104 l44 46 12 -31 c18 -43 93 -105 159 -130 79 -31 253 -37 376 -14 248
46 547 185 770 359 155 122 345 350 401 481 17 39 17 39 25 15 20 -59 131
-784 194 -1270 14 -106 22 -135 52 -190 89 -165 198 -300 241 -300 24 0 52 31
52 56 0 11 -14 33 -31 50 -34 32 -99 126 -154 224 -37 64 -37 68 -81 392 -70
527 -133 916 -190 1176 -13 63 -24 139 -24 171 l0 57 73 -19 c57 -16 105 -20
234 -21 l162 -1 17 -35 c157 -321 372 -806 413 -932 68 -207 131 -238 476
-238 195 0 225 7 225 53 -1 51 -4 52 -242 57 -306 7 -299 3 -379 225 -36 102
-146 353 -274 625 -118 251 -127 271 -123 274 1 2 15 6 30 10 23 5 30 1 48
-29 44 -71 110 -94 170 -60 14 8 35 14 47 15 12 0 35 11 50 24 27 24 28 25 11
53 -20 34 -68 42 -123 19 -48 -20 -52 -20 -65 4 -9 17 -3 23 55 51 35 18 88
51 117 73 62 46 127 60 339 72 162 9 179 5 179 -42 0 -41 124 -382 217 -598
117 -272 226 -466 304 -545 44 -44 137 -88 204 -96 38 -5 78 0 159 19 59 14
117 26 130 26 65 0 92 84 33 104 -27 10 -50 7 -249 -37 -63 -14 -144 11 -199
60 -75 68 -192 289 -329 622 -113 275 -160 414 -160 474 0 55 -14 78 -64 105
-14 7 18 8 110 5 162 -7 320 9 377 38 23 12 70 42 104 66 62 44 114 65 188 78
l40 7 -42 21 c-24 12 -43 24 -43 27 0 4 30 11 68 16 l67 9 -54 30 c-30 17 -66
41 -81 55 -29 26 -145 240 -130 240 4 0 54 5 111 10 179 18 365 74 654 195
251 105 433 156 713 200 84 13 205 27 269 31 93 6 120 11 135 26 23 23 23 50
0 71 -23 21 -83 22 -262 2 -351 -39 -598 -104 -941 -248 -301 -126 -467 -169
-670 -172 l-136 -2 -51 31 c-28 17 -52 35 -52 40 0 12 186 258 275 360 256
297 530 551 799 739 110 77 116 83 116 112 0 23 -32 55 -55 55 -6 0 -51 -27
-100 -61z m-2575 -1480 c0 -4 -21 -12 -47 -19 -27 -6 -81 -24 -121 -40 l-73
-28 6 41 c25 164 64 311 98 366 l21 34 58 -174 c32 -95 58 -177 58 -180z
m-978 109 c13 -11 372 -426 406 -470 10 -13 10 -26 1 -62 -6 -25 -12 -46 -13
-46 0 0 -23 7 -50 15 -169 51 -413 14 -655 -101 -61 -29 -98 -41 -104 -35 -7
7 25 71 88 183 54 95 143 253 198 351 55 97 103 177 107 177 3 0 13 -6 22 -12z
m1883 -489 c27 -18 83 -48 125 -66 l75 -33 -80 0 c-44 0 -120 -5 -169 -10 -49
-6 -90 -9 -92 -8 -1 2 6 28 16 58 11 30 19 75 20 99 l0 45 28 -26 c15 -14 49
-40 77 -59z"/>
</g>
</svg>
